<!-- Generator: Adobe Illustrator 19.2.1, SVG Export Plug-In  -->
<svg version="1.1"
	 xmlns="http://www.w3.org/2000/svg" xmlns:xlink="http://www.w3.org/1999/xlink" xmlns:a="http://ns.adobe.com/AdobeSVGViewerExtensions/3.0/"
	 x="0px" y="0px" width="438.5px" height="538.9px" viewBox="0 0 438.5 538.9" style="enable-background:new 0 0 438.5 538.9;"
	 xml:space="preserve">
<style type="text/css">
	.st0{fill:#786550;}
	.st1{fill:#A08665;}
	.st2{fill:#EACFB8;}
	.st3{fill:#504E50;}
	.st4{fill:#8E8A77;}
	.st5{fill:#4D4B42;}
	.st6{fill:#C1A280;}
	.st7{fill:#676767;}
	.st8{fill:#010101;}
	.st9{fill:#FFFFFF;}
	.st10{fill:#5A4B43;}
	.st11{fill:#736759;}
	.st12{fill:#231F20;}
	.st13{fill:#6E6F72;}
</style>
<defs>
</defs>
<g>
	<g>
		<path class="st0" d="M56.7,390.4c0,0-12.7-63.5-10.7-96.3c2-32.8,33-34.4,45-17.2c12,17.2,39,91.7,14,112.3
			C80,409.7,66.4,412.9,56.7,390.4z"/>
		<path class="st1" d="M61.1,375.6c0,0-11.4-81.9-4.6-94.6c6.8-12.7,30.5-15.8,35.1,3.5c4.7,19.3,25.3,73.8,6.3,91.1
			C79,392.9,65.3,395,61.1,375.6z"/>
		<path class="st0" d="M257.2,265.2c-3.6,13-58.7,54-75.9,15c0,0-13.3-49-16.8-89.1c-3.2-37,7.7-104.7,18.9-122.7
			c-0.3,1.6-13.1,60.3-9.9,97c3.2,37.2,10.7,101,21.7,102.9c11,1.9,23.5-2.6,27-19.6c2.1-10,11.3-19.1,18.7-25
			C249.6,240.5,259.6,256.5,257.2,265.2z"/>
		<path class="st1" d="M213.3,64.9c-11.1,11.8-27.7,32.6-37,44.5c3-22.1,6.9-40,7.1-40.9c0.9-1.5,1.8-2.6,2.7-3.4
			C193.7,58.8,205.1,56.8,213.3,64.9z"/>
		<path class="st1" d="M240.8,223.6c-7.3,5.9-16.6,15-18.7,25c-3.5,17-16,21.5-27,19.6c-10.3-1.7-17.5-57.7-21-95.3
			c11.7-15.8,35.3-47.2,50.2-63.1c1.4,31.8,0.9,68.3,5.8,88.3C232.2,206.2,236.4,215,240.8,223.6z"/>
		<path class="st1" d="M320.5,308.9c-21.7,17.3-55,7.2-51.7,13.4c3.3,6.2,31.3,1.6,38,5.9c6.7,4.3-21.6,38-42.7,54.5
			c-21,16.5-77.4,42.8-140.7,39.9C60.1,419.7,61,387,58.2,370.8v0c10.1-25.8,35.9-49.6,65.6-65.7c38.3-20.8,81.8-28.8,97.7-31.2
			c-0.1-6.8,0.9-14.4,3.9-22.5c10.5-28.4,53.5-49.5,92.8-26.8c12.4,7.1,19,20,21.6,34.4C339.9,260.7,341.6,292,320.5,308.9z"/>
		<path class="st2" d="M325.8,281.2c-0.2,0.8-0.3,1.5-0.5,2.2c0,0.1,0,0.2-0.1,0.3c0,0,0,0,0,0c0,0.2-0.1,0.4-0.2,0.5
			c-1.2,3.3-6.2,0.9-9-4.4c-3-5.6-6.8-12.4-16.8-15.2c-10.1-2.8-12.9,6.8-8.3,10.2c4.7,3.3,14,11,16,18.1c2,6.9-2.2,12-2.5,12.2
			c0,0,0,0,0,0v0c-15.3,6-36.6,4.7-56.5-4.1c-4.9-2.2-8.8-4.9-11.7-8.1c0,0,0,0,0,0s2.8-11,12.5-17.3c9.8-6.3,15-9,11-14
			c-4-5-14.9-2.4-19,2.5c-4.8,5.7-9.9,17.8-12.4,12c-2.6-17.6,8.2-36.9,19.7-39.2c16.4-3.2,25.3,11.2,25.3,11.2
			C307.2,229.1,330.6,257.2,325.8,281.2z"/>
		<path class="st3" d="M279.1,274.5c0,0-7.3-4.7-15.6-1c-8,3.5-2.3,14.4,7.3,14C281,287.1,286.6,279.5,279.1,274.5z"/>
		<path class="st4" d="M288.4,295.9c0,0-0.7,2.1-10.8,1.4c-10.1-0.7-21-3.1-24.4-5.5c-3.4-2.4-3.4-1-2.5,0.1
			c0.9,1.1,7.4,5.3,19.7,6.9c12.3,1.6,16.4,1.6,18.6-1C291.1,295.2,289.3,295.2,288.4,295.9z"/>
		<path class="st5" d="M325,284.2c-3,10.1-10.5,17.1-20.6,21c0.2-0.2,4.4-5.3,2.5-12.2c-2-7.1-11.3-14.8-16-18.1
			c-4.7-3.3-1.8-12.9,8.3-10.2c10.1,2.8,13.8,9.6,16.8,15.2C318.8,285.1,323.8,287.5,325,284.2z"/>
		<path class="st5" d="M248.7,275.7c-9.8,6.3-12.5,17.3-12.5,17.3c-4.6-4.9-7.1-10.8-7.9-16.8c2.6,5.9,7.7-6.2,12.4-12
			c4.1-5,15-7.5,19-2.5C263.7,266.7,258.4,269.4,248.7,275.7z"/>
		<path class="st6" d="M210.8,281.5c0,0-64.7,7.2-92.7,34.7c-28,27.5-20.7,51.5,3.3,59.2c24,7.7,70.7-1.6,100.1-18
			c29.4-16.4,29.4-42.3,19.3-52.7C230.8,294.4,223.3,279.6,210.8,281.5z"/>
		<path class="st6" d="M296,218.9c0,0-21.6-6.7-41.7,5.1c-20.1,11.8-5.2,6.7,2.5,6.3c7.7-0.4,15.2,3.9,17.6,7.3
			c2.5,3.4,14.1-4.1,29-3.3C318.2,235.1,318.8,225.1,296,218.9z"/>
		<path class="st7" d="M275.1,274.2c0,0-7.9-1.6-12.3,1.3c-4.4,2.9,1.8,6,6.6,5.9C274.3,281.3,285.3,278,275.1,274.2z"/>
		<path class="st0" d="M224.3,109.8c-14.9,15.9-38.5,47.3-50.2,63.1c-0.3-2.6-0.5-5.1-0.7-7.5c-1.4-16.6,0.4-37.8,2.9-56
			c9.3-11.9,25.9-32.7,37-44.5c4.9,4.8,8.7,13.1,9.8,26.2C223.7,97,224,103.3,224.3,109.8z"/>
		<path class="st6" d="M220.2,131.6c0,0,0.3,38.3,4.2,57.7c3.8,19.4,10,26.4,3.9,31.9c-6.1,5.5-24.7,20.5-33.4,0
			c-8.7-20.5-12.2-42.5-2.2-59C202.6,145.6,219.8,117.6,220.2,131.6z"/>
		<circle class="st8" cx="295.6" cy="270" r="5.9"/>
		<circle class="st8" cx="252.8" cy="265.3" r="5.9"/>
		<circle class="st9" cx="297.2" cy="267" r="1.7"/>
		<circle class="st9" cx="255.4" cy="262.5" r="1.7"/>
		<path class="st0" d="M330,318.2c-7.3,17.6-37.3,82.9-91.9,119.4c0,0,0,0,0,0c-0.8,0.9-13,15.3-14.4,19.8c-1.5,4.7-2.5-6.1-2.5-6.1
			s-9.3,15-11,16.5c-1.8,1.5-2.8-9.8-6.3-7c-3.5,2.8-1.4,10.5-4.8,7.1c-3.4-3.4-4.9-6.4-7.4-1.6c-2.5,4.8-5.5,5.2-7,2.5
			c-1.5-2.7-5.8-1.5-5.8,2.8c0,4.3-4.3,0.2-6.5-1.8c-2.3-2-6.2,2.3-7.8,3.6c-1.7,1.4-4.4-5.1-6.2-4.9c-1.8,0.3-7,1.6-8.5,5.1
			c-1.5,3.4-3.5-5.1-6.5-4.3c-3,0.7-8.3-1.3-8.3,2.5c0,3.8-4,0.8-5-1.8c-1-2.5-6.5-2-7.5,1c-1,3-2.3-4-4-4.8c-1.8-0.7-7,0.8-7,0.8
			s-0.8-2.5-3-3.2c-2.3-0.6-5.8,4.2-5.8,4.2s-1.3-4.8-4.5-7c-3.3-2.3-4.3-4.3-6.8-0.5c-2.5,3.8,2-4-5.9-10.5c0,0,0,0,0,0
			c-10-6.9-18.5-16.8-25.6-30.6c-8.4-16.2-8.1-32.9-1.9-48.9c2.8,16.2,1.9,48.9,65.2,51.8c63.4,2.9,119.7-23.3,140.7-39.9
			c21-16.5,49.4-50.2,42.7-54.5c-6.7-4.3-34.7,0.3-38-5.9c-3.3-6.2,30,3.9,51.7-13.4c21.1-16.9,19.4-48.2,19.3-49.8
			C343.7,280.1,338.7,304.4,330,318.2z"/>
		<path class="st10" d="M297.1,12c0,0-6.9,2-24.9,26c-18,24-86.2,108-107.6,140.1c-21.4,32-32.9,58.1-66.5,97.1
			C64.6,314.2,21,372.8,12,377c-1.5,0.7-3.2,1.2-4.8,1.4c14.7-17.7,46.8-56.3,49.4-59.5c3.4-4.2,1.2-3.8-4.8-7.7
			c-1.7-1.1-3.6-2.6-5.4-4.6c16-18.9,36-43.1,53.5-66.4c4,7.1,9,10.9,16.4,0.5c12.3-17.5,33.8-59.5,41.8-70
			c8-10.5,17.1-23.5,31.1-40.5c13.9-17,67-83,76-94.1c6-7.3,21.2-20.8,30.2-32.3C297.4,7.2,297.1,12,297.1,12z"/>
		<path class="st10" d="M213.3,87.6c-1.4,5.9-8.9,11.7-9.7,8.7c-0.8-3-2.1,4.5-4.1,7.8c-1.9,3.3-7.7,7.8-8.2,5.3
			c-0.5-2.5-1.3,2-4,6.7c-2.5,4.3-7.7,11.5-10.8,2.4c11.8-16.9,24.7-34.1,37.4-49.8C214.2,76.4,214.2,84.3,213.3,87.6z"/>
		<path class="st11" d="M295.4,3.7c-9,11.6-24.2,25-30.2,32.3c-9,11-62,77-76,94.1c-13.9,17-23.1,30-31.1,40.5
			c-8,10.5-29.5,52.5-41.8,70c-7.3,10.4-12.3,6.6-16.4-0.5c16.1-21.4,30.1-42,37.2-57c8.2-17.4,22.7-40.7,39.4-64.6
			c3.2,9.1,8.4,1.9,10.8-2.4c2.7-4.8,3.5-9.3,4-6.7c0.5,2.5,6.3-2,8.2-5.3c1.9-3.3,3.3-10.8,4.1-7.8c0.8,3,8.3-2.8,9.7-8.7
			c0.8-3.3,0.8-11.2,0.6-19C233.8,43.9,253,22.7,266,12C285.1-3.6,292.5-1.2,295.4,3.7z"/>
		<path class="st1" d="M407.2,487.7c0,19.9-15.2,31.5-33.5,27.9c-18.4-3.5-49.6-51.4-61-68.2c-11.4-16.8-9-18.3-28.7-58.5
			c-19.7-40.2-9.1-50.4-9.1-50.4c12.8-9.5,30.4-13.9,33.4-4c0,0,23.2,63,32,74.2C347.8,418.4,394.7,462.6,407.2,487.7z"/>
		<path class="st0" d="M410.3,498c2.6,23.4-21,44.7-50.1,24.2c-33.2-23.3-52.1-51.5-64.8-84.5c-12.7-33-31.5-63.6-33.9-75.9
			c-1.6-8.3,4.8-17,13.3-23.3c0,0-10.6,10.3,9.1,50.4c19.7,40.2,17.4,41.6,28.7,58.5c11.3,16.8,42.6,64.7,61,68.2
			c18.4,3.5,33.5-8,33.5-27.9C409.2,491.7,410,495.2,410.3,498z"/>
		<path class="st6" d="M331.8,423.4c0,0-10.6,6.7-2.9,24.9c7.7,18.2,31.7,55,45.9,57.6c14.2,2.6,30.1-8.9,29.3-16.9
			c-0.8-8-40.1-49.5-47.7-57.7C348.8,423,343.8,417.7,331.8,423.4z"/>
		<path class="st12" d="M54.4,285.8c0,0-3.5-1.4-5.8,4.1c-2.3,5.4,0.6,15.1,4.9,17.2c4.3,2,2-2,2.1-10.7
			C55.7,287.6,57.1,286.5,54.4,285.8z"/>
		<path class="st12" d="M61.7,276c0,0-5.4,1.5-5,10.3c0.4,8.8,2,11.7,5,12c3,0.4,5-9.3,5.1-12C66.9,283.5,67.2,275,61.7,276z"/>
		<path class="st1" d="M161.4,422.1c-23.5,22.9-65.9,3.8-77.9-16.2C71.5,386,68.1,260.4,68,259c0,0,0,0,0,0c2.1-9.9,5.2-16.5,10-20
			c15-11,33-1.8,36,17.1c3,18.8,15,84,36,97.4C161.7,360.7,169.1,394.9,161.4,422.1z"/>
		<path class="st0" d="M161.4,422.1c-6.3,22-22.4,39.5-54.2,34.6c0,0-41.1-11.7-42.1-89c-0.7-52.4-1.4-87.9,3-108.8
			c0,1.5,3.4,127.1,15.4,147C95.4,425.9,137.9,445,161.4,422.1z"/>
		<path class="st6" d="M90.5,238.5c0,0-13.4,1-13.3,12.3c0.1,11.2,0.9,70.4,6.6,80.7c5.8,10.2,18.6,31.7,34.9,25.7
			c16.2-6,5.1-37.3,0-54.2C113.6,286.1,107,236.9,90.5,238.5z"/>
		<path class="st12" d="M184.1,86.9c0,0-6.4,1.6-6.8,11.1c-0.4,9.5,4.3,19.2,6.8,19.9c2.5,0.7,4.2-10.5,4.3-16.1
			C188.5,96.2,187.7,85.8,184.1,86.9z"/>
		<path class="st12" d="M192,74c0,0-5.2,3.3-4.5,10.4c0.7,7.1,3.9,16.2,5.9,19.2c2,3,3.8,3.5,5.3-6.1C200.1,87.9,201,66.5,192,74z"
			/>
		<path class="st12" d="M202.6,66.2c0,0-3,3.2-1.7,12.3c1.3,9.2,5.9,16.5,7.7,13.5c1.8-3,4.6-17,3.3-20.9
			C210.7,67.2,205.5,62,202.6,66.2z"/>
		<path class="st13" d="M183.9,87.9c0,0-4.7,2.8-5.2,8.5c-0.5,5.7,1.1,9.6,2.6,10.5c1.5,0.9,5.3-5.3,5.4-8.8
			C186.8,94.6,186,86.1,183.9,87.9z"/>
		<path class="st13" d="M194.4,73.9c0,0-5.2,2.7-5.2,7.7c0,5,1.9,12,4,11.7c2.1-0.3,4.7-4.5,4.5-9C197.6,79.8,196.3,72.6,194.4,73.9
			z"/>
		<path class="st13" d="M204.4,66.7c0,0-2.4,3.1-2.4,7c0,4,2.3,7.5,3.6,7.3c1.4-0.1,5-3,5.1-6.6C210.9,70.8,206.9,63.7,204.4,66.7z"
			/>
		<path class="st13" d="M52.3,287.3c0,0-2.9,1.9-3.3,4.7c-0.4,2.8,1.6,5.6,2.9,5.7c1.3,0.2,2.7-3.1,2.8-5.6
			C54.9,289.7,54.8,285.9,52.3,287.3z"/>
		<path class="st13" d="M61.8,277.4c0,0-2.7,0.8-3.6,4.7c-0.9,3.8,1.4,7.6,2.5,7.6s3.4-3.7,3.4-3.7l0.4-7
			C64.6,279,63.1,276.6,61.8,277.4z"/>
		<path class="st12" d="M382,525.8c0,0,13.8,11.8,30.7,12.9c16.9,1.1,7.2-2.3,2.2-4.6c-5-2.3-14.4-9.6-21.5-11.5
			C386.2,520.8,377.8,522.7,382,525.8z"/>
		<path class="st12" d="M401.4,520.3c0,0,14,8.8,23.3,10.1c9.3,1.4,10.2-0.5,5.2-2.8c-5-2.3-20.4-11.2-22.7-14.8
			C404.9,509.1,396.1,517.3,401.4,520.3z"/>
		<path class="st12" d="M409.6,511.1c0,0,14.2,9.2,22.3,10.2c8.2,1,8.2-0.3,2.5-2.5c-5.7-2.2-21.8-14.8-23.2-16.4
			c-1.1-1.3-1.8-1-2.5,2.8C407.9,509.1,407.2,510.1,409.6,511.1z"/>
		<path class="st13" d="M396.3,524.9c0,0-4-1.6-7.1-1.4c-3.1,0.2-0.7,3.1,4.9,5.9c5.6,2.8,14.5,5.8,17.1,5.8
			C413.8,535.2,403.3,527.9,396.3,524.9z"/>
		<path class="st13" d="M409.4,516.2c0,0-3.7-2.3-5.2-1.4c-1.5,0.9-0.7,3.2,7,7.1c7.6,3.9,15.3,5.3,13.3,4.3
			C422.4,525.2,412.8,518.8,409.4,516.2z"/>
		<path class="st13" d="M411,506.3c0,0-0.2,2.4,3.1,4.4c3.3,2,10.8,6.5,13.9,7c3.1,0.5,2.9-0.1-1.4-2.3
			C422.4,513.3,410.4,502.5,411,506.3z"/>
		<path class="st11" d="M56.7,318.9c-2.6,3.2-34.7,41.8-49.4,59.5c-8,1.1-14.3-5.7,8.8-36.9c0,0,12.9-14.3,30.4-35
			c1.8,2,3.7,3.5,5.4,4.6C57.9,315.1,60.1,314.7,56.7,318.9z"/>
		<g>
			<path class="st10" d="M60.1,309.7c0,0-0.2,0.2-0.6,0.5c-0.4,0.4-1,0.9-1.7,1.6c-1.5,1.4-3.5,3.5-6,6.2c-2.5,2.7-5.4,5.9-8.4,9.7
				c-0.7,1-1.4,2-2.2,3c-0.7,1-1.4,2.1-2.2,3.2c-1.5,2.1-3.2,4.3-5,6.4c-7,8.7-13.6,16.3-18.5,21.8c-2.4,2.7-4.5,4.9-5.9,6.3
				c-0.7,0.7-1.3,1.3-1.7,1.6c-0.4,0.4-0.6,0.6-0.6,0.6c0,0,0.2-0.2,0.7-0.5c0.4-0.3,1-0.9,1.8-1.6c1.5-1.4,3.6-3.5,6-6.2
				c5-5.4,11.6-13,18.7-21.7c1.7-2.2,3.4-4.3,5-6.5c0.8-1,1.5-2.2,2.2-3.2c0.7-1,1.4-2,2.1-3c3-3.8,5.8-7.1,8.3-9.8
				c2.5-2.7,4.5-4.9,5.9-6.3c0.7-0.7,1.3-1.3,1.6-1.7C59.9,309.9,60.1,309.7,60.1,309.7z"/>
		</g>
		<g>
			<path class="st10" d="M17.5,348.2c0,0,0.2-0.1,0.5-0.3c0.3-0.2,0.7-0.6,1.1-1.1c0.9-1,2.1-2.5,3.5-4.4c2.9-3.8,6.7-9.1,11.5-14.6
				c4.9-5.4,9.3-10.2,12.5-13.7c1.6-1.7,2.9-3.1,3.8-4.1c0.4-0.5,0.8-0.9,1-1.1c0.2-0.3,0.3-0.4,0.3-0.4c0,0-0.2,0.1-0.4,0.3
				c-0.3,0.2-0.6,0.6-1.1,1.1c-0.9,0.9-2.3,2.3-4,4c-3.3,3.4-7.7,8.3-12.7,13.6c-4.8,5.5-8.6,10.9-11.4,14.7
				c-1.4,1.9-2.5,3.5-3.4,4.5C18.1,347.7,17.5,348.2,17.5,348.2z"/>
		</g>
		<g>
			<path class="st10" d="M161.4,162.6c0,0-0.2,0.2-0.6,0.7c-0.4,0.5-0.8,1.2-1.6,2.1c-1.4,1.8-3.5,4.3-6.1,7.4
				c-2.6,3.1-5.6,6.8-8.8,11.2c-0.8,1.1-1.6,2.2-2.4,3.3c-0.8,1.2-1.5,2.4-2.3,3.6l-0.6,0.9l-0.5,1c-0.4,0.7-0.7,1.3-1.1,2
				c-0.4,0.7-0.7,1.3-1.1,2c-0.3,0.7-0.7,1.4-1,2.1c-2.8,5.5-5.8,10.5-8.6,15.1c-2.8,4.6-5.4,8.6-7.6,12c-2.2,3.4-4.1,6.1-5.4,7.9
				c-1.3,1.8-2.1,2.8-2.2,2.7c0.3,0.3,3.4-3.7,7.9-10.4c2.3-3.4,4.9-7.4,7.7-11.9c2.8-4.6,5.8-9.6,8.7-15.1c0.3-0.7,0.7-1.4,1-2.1
				c0.4-0.7,0.7-1.3,1.1-2c0.4-0.7,0.7-1.3,1.1-2l0.5-1l0.6-0.9c0.8-1.2,1.6-2.4,2.3-3.6c0.8-1.2,1.6-2.2,2.4-3.3
				c3.1-4.3,6.1-8.1,8.7-11.2c2.5-3.1,4.6-5.7,5.9-7.5c0.7-0.9,1.1-1.7,1.5-2.1C161.2,162.9,161.4,162.6,161.4,162.6z"/>
		</g>
		<g>
			<path class="st10" d="M189.6,111.5c0,0-0.2,0.2-0.6,0.6c-0.3,0.4-0.9,1-1.5,1.7c-1.3,1.5-3.2,3.7-5.5,6.4c-2.3,2.7-5,6-8.1,9.6
				c-1.5,1.9-2.8,4-4.2,6.1c-1.4,2.2-2.8,4.4-4.2,6.7c-5.7,9.2-10.8,17.7-14.5,23.8c-1.9,3-3.4,5.5-4.4,7.2c-0.5,0.8-1,1.5-1.3,1.9
				c-0.3,0.4-0.5,0.6-0.5,0.6c0.2,0.2,2.8-3.4,6.5-9.5c3.8-6,8.9-14.4,14.6-23.7c1.4-2.3,2.9-4.5,4.2-6.7c1.4-2.1,2.7-4.3,4.1-6.1
				c3-3.6,5.7-6.9,8-9.6c2.2-2.8,4.1-5,5.3-6.5c0.6-0.8,1.1-1.4,1.4-1.8C189.4,111.8,189.6,111.6,189.6,111.5z"/>
		</g>
		<g>
			<path class="st10" d="M224.3,77c0,0-0.2,0.2-0.5,0.7c-0.3,0.5-0.8,1.2-1.3,2.1c-1.2,1.8-2.9,4.4-5,7.5c-2.2,3.1-4.8,6.9-8,10.7
				c-1.6,2-3.2,4-5,6.1c-1.7,2.1-3.5,4.3-5.3,6.6c-7.1,9.2-13.6,17.6-18.3,23.6c-2.3,3-4.3,5.4-5.7,7c-0.7,0.8-1.2,1.4-1.6,1.8
				c-0.4,0.4-0.7,0.5-0.7,0.5c0,0,0.3-0.1,0.7-0.4c0.4-0.4,1-1,1.7-1.8c1.4-1.6,3.4-4,5.8-6.9c4.8-5.9,11.2-14.3,18.4-23.5
				c1.8-2.3,3.6-4.5,5.3-6.6c1.8-2.1,3.4-4.2,5-6.2c3.2-3.9,5.7-7.7,7.9-10.8c2.1-3.2,3.8-5.8,4.9-7.6c0.5-0.9,1-1.6,1.2-2.1
				C224.2,77.3,224.3,77.1,224.3,77z"/>
		</g>
		<g>
			<path class="st10" d="M281.2,4.8c0,0-0.3,0.2-0.8,0.5c-0.5,0.3-1.2,0.9-2.1,1.5c-1.8,1.3-4.5,3.3-7.6,5.8
				c-6.6,4.8-14.1,13.2-22.4,22.3c-8.3,9.1-15.7,17.5-21.1,23.6c-2.7,3-4.8,5.5-6.3,7.2c-0.7,0.9-1.3,1.5-1.7,2
				c-0.4,0.5-0.6,0.7-0.6,0.7c0,0,0.2-0.2,0.6-0.6c0.4-0.4,1-1.1,1.8-1.9c1.5-1.7,3.7-4.1,6.5-7.1c5.4-6,12.9-14.3,21.2-23.5
				c8.3-9.2,15.7-17.5,22.2-22.4c3.1-2.6,5.7-4.6,7.5-6c0.9-0.7,1.6-1.2,2-1.6C281,5,281.2,4.8,281.2,4.8z"/>
		</g>
		<g>
			<path class="st10" d="M276.9,18.3c0,0-0.2,0.1-0.5,0.5c-0.3,0.3-0.8,0.8-1.4,1.4c-1.2,1.3-3,3-5.2,5.3c-1.1,1.2-2.2,2.4-3.5,3.8
				c-1.2,1.4-2.5,2.9-3.8,4.5c-2.6,3.2-5.5,6.7-8.6,10.4c-6.2,7.3-11.8,13.9-16,18.6c-2.1,2.3-3.8,4.2-5.1,5.4
				c-0.6,0.6-1.1,1.1-1.5,1.4c-0.2,0.1-0.3,0.2-0.4,0.3c-0.1,0.1-0.2,0-0.2,0.1c0,0,0.3,0,0.7-0.3c0.4-0.3,0.9-0.7,1.6-1.3
				c1.3-1.2,3.1-3,5.2-5.3c4.3-4.6,10-11.1,16.1-18.5c3.1-3.7,6-7.2,8.6-10.4c1.3-1.6,2.6-3.1,3.8-4.5c1.2-1.4,2.4-2.6,3.4-3.8
				c2.1-2.3,3.8-4.2,5-5.5c0.6-0.6,1.1-1.1,1.4-1.5C276.8,18.5,277,18.3,276.9,18.3z"/>
		</g>
		<g>
			<path class="st10" d="M291.2,2.3c0,0-0.6,0.2-1.6,0.7c-0.5,0.2-1.1,0.6-1.8,1c-0.3,0.2-0.7,0.4-1.1,0.7c-0.4,0.3-0.8,0.6-1.2,0.9
				c-3.4,2.4-7.7,6.1-12.3,10.5c-4.5,4.4-8.4,8.6-11.2,11.6c-1.4,1.5-2.5,2.8-3.2,3.7c-0.7,0.9-1.1,1.4-1.1,1.4c0,0,0.5-0.4,1.3-1.3
				c0.8-0.8,1.9-2,3.4-3.5c2.8-3,6.8-7.1,11.3-11.5c4.5-4.4,8.8-8.1,12.1-10.6c0.4-0.3,0.8-0.6,1.2-0.9c0.4-0.3,0.8-0.5,1.1-0.7
				c0.7-0.5,1.3-0.9,1.8-1.1C290.7,2.6,291.2,2.3,291.2,2.3z"/>
		</g>
	</g>
</g>
</svg>
