<!-- Generator: Adobe Illustrator 19.2.1, SVG Export Plug-In  -->
<svg version="1.1"
	 xmlns="http://www.w3.org/2000/svg" xmlns:xlink="http://www.w3.org/1999/xlink" xmlns:a="http://ns.adobe.com/AdobeSVGViewerExtensions/3.0/"
	 x="0px" y="0px" width="541px" height="116.8px" viewBox="0 0 541 116.8" style="enable-background:new 0 0 541 116.8;"
	 xml:space="preserve">
<style type="text/css">
	.st0{fill:#4D4B42;}
</style>
<defs>
</defs>
<path class="st0" d="M467.5,14.1l69.6,40.2c5.2,3,5.2,10.6,0,13.6l-69.6,40.2c-5.2,3-11.8-0.8-11.8-6.8V20.9
	C455.7,14.9,462.3,11.1,467.5,14.1z"/>
<g>
	<g>
		<path class="st0" d="M39.4,0c8,0,14.9,0.9,20.7,2.8c5.8,1.9,10.6,4.5,14.4,7.8c3.8,3.4,6.5,7.3,8.3,12c1.8,4.6,2.7,9.6,2.7,15.1
			c0,5.7-0.9,11-2.8,15.8c-1.9,4.8-4.7,8.9-8.5,12.3c-3.8,3.4-8.6,6.1-14.4,8c-5.8,1.9-12.6,2.9-20.4,2.9H24.2v40.2H0V0H39.4z
			 M39.4,58.1c7.6,0,13.1-1.8,16.6-5.5c3.5-3.6,5.3-8.6,5.3-15c0-2.9-0.4-5.5-1.3-7.9c-0.9-2.4-2.2-4.4-4-6.1
			c-1.8-1.7-4.1-3-6.8-3.9c-2.7-0.9-6-1.4-9.7-1.4H24.2v39.8H39.4z"/>
		<path class="st0" d="M186.4,97.2v19.6H117V0h24.2v97.2H186.4z"/>
		<path class="st0" d="M319.4,116.8h-18.8c-2.1,0-3.8-0.5-5.1-1.5c-1.3-1-2.3-2.3-2.9-3.8l-7.9-22.3h-46.5l-7.9,22.3
			c-0.5,1.3-1.5,2.6-2.8,3.7c-1.3,1.1-3,1.7-5.1,1.7h-18.9L249.1,0h24.7L319.4,116.8z M278.9,72.5l-12.6-35.7
			c-0.8-1.9-1.5-4.1-2.4-6.6c-0.8-2.5-1.6-5.3-2.4-8.2c-0.8,3-1.5,5.8-2.4,8.3c-0.8,2.5-1.6,4.8-2.4,6.6l-12.6,35.6H278.9z"/>
		<path class="st0" d="M386.7,71.9v44.9h-24.1V71.9L320.1,0h21.3c2.1,0,3.8,0.5,5,1.5c1.3,1,2.3,2.3,3,3.8l19.2,36.8
			c1.3,2.5,2.5,4.8,3.5,6.9c1,2.1,2,4.3,2.8,6.4c0.8-2.1,1.6-4.3,2.6-6.5c1-2.2,2.1-4.5,3.3-6.9l19-36.8c0.6-1.3,1.6-2.5,2.9-3.6
			c1.3-1.1,3-1.7,5-1.7h21.4L386.7,71.9z"/>
	</g>
</g>
</svg>
